<?xml version="1.0" standalone="no"?>
<!DOCTYPE svg PUBLIC "-//W3C//DTD SVG 20010904//EN"
 "http://www.w3.org/TR/2001/REC-SVG-20010904/DTD/svg10.dtd">
<svg version="1.0" xmlns="http://www.w3.org/2000/svg"
 width="300.000000pt" height="300.000000pt" viewBox="0 0 300.000000 300.000000"
 preserveAspectRatio="xMidYMid meet">
<metadata>
Created by potrace 1.11, written by Peter Selinger 2001-2013
</metadata>
<g transform="translate(0.000000,300.000000) scale(0.100000,-0.100000)"
fill="#000000" stroke="none">
<path d="M1355 2456 c-201 -46 -370 -175 -463 -353 -59 -113 -75 -191 -70
-333 7 -181 61 -308 184 -436 52 -54 67 -64 96 -64 23 0 42 8 56 23 37 40 29
70 -43 147 -107 118 -152 239 -143 391 21 344 373 572 706 456 128 -45 240
-142 301 -264 32 -65 90 -84 131 -43 49 49 0 161 -125 286 -90 90 -153 130
-270 170 -98 33 -264 42 -360 20z"/>
<path d="M1932 1850 c-114 -30 -224 -93 -306 -175 -124 -124 -181 -246 -197
-429 -13 -150 -24 -198 -62 -275 -39 -79 -129 -174 -209 -219 -303 -172 -696
-9 -783 323 -58 225 54 472 263 583 67 36 87 64 76 108 -8 29 -40 54 -72 54
-59 0 -213 -107 -284 -197 -99 -126 -148 -266 -148 -420 0 -291 182 -541 465
-639 71 -25 95 -28 210 -29 109 0 142 4 205 23 118 37 195 85 290 181 131 132
181 249 195 455 11 172 65 290 175 389 297 267 775 125 875 -260 87 -332 -198
-663 -550 -640 -143 10 -278 75 -369 179 -51 58 -89 70 -129 38 -56 -45 -25
-118 94 -216 184 -153 463 -196 689 -107 264 105 430 348 430 627 0 115 -19
195 -69 293 -91 179 -246 304 -437 353 -102 26 -252 26 -352 0z"/>
</g>
</svg>
