<svg xmlns="http://www.w3.org/2000/svg" viewBox="0 0 137.54 103.22"><defs><style>.cls-1{fill:#1e76b0;opacity:0.3;}</style></defs><title>Primary Blue</title><g id="Layer_2" data-name="Layer 2"><g id="Primary_-_Blue" data-name="Primary - Blue"><g id="Primary_Blue" data-name="Primary Blue"><path class="cls-1" d="M137.54,67.48c0,19.71-16.32,35.74-36.38,35.74a36.36,36.36,0,0,1-29-14.15,4,4,0,0,1,6.31-4.88,28.41,28.41,0,0,0,22.68,11.06c15.67,0,28.41-12.46,28.41-27.77s-12.74-27.76-28.41-27.76-28.4,12.45-28.4,27.76c0,19.71-16.32,35.74-36.38,35.74S0,87.19,0,67.48A35.79,35.79,0,0,1,21.49,34.87a4,4,0,0,1,3.22,7.3A27.78,27.78,0,0,0,8,67.48c0,15.31,12.74,27.77,28.4,27.77S64.79,82.79,64.79,67.48c0-19.7,16.32-35.73,36.37-35.73S137.54,47.78,137.54,67.48Z"/><path class="cls-1" d="M100.15,26.85a4,4,0,0,1-5.26-2.05A28.42,28.42,0,0,0,68.77,8c-15.66,0-28.4,12.45-28.4,27.76a27.5,27.5,0,0,0,10,21.11A4,4,0,0,1,45.21,63,35.42,35.42,0,0,1,32.4,35.73C32.4,16,48.71,0,68.77,0a36.38,36.38,0,0,1,33.42,21.6A4,4,0,0,1,100.15,26.85Z"/></g></g></g></svg>